<?xml version="1.0" standalone="no"?>
<!DOCTYPE svg PUBLIC "-//W3C//DTD SVG 20010904//EN"
 "http://www.w3.org/TR/2001/REC-SVG-20010904/DTD/svg10.dtd">
<svg version="1.0" xmlns="http://www.w3.org/2000/svg"
 width="319.000000pt" height="298.000000pt" viewBox="0 0 319.000000 298.000000"
 preserveAspectRatio="xMidYMid meet">

<g transform="translate(0.000000,298.000000) scale(0.100000,-0.100000)"
fill="#000000" stroke="none">
<path d="M1222 2285 c-94 -26 -163 -72 -209 -137 l-26 -38 -58 54 c-68 63
-137 93 -237 102 -228 21 -421 -119 -462 -336 -6 -31 -10 -280 -10 -616 l0
-564 180 0 180 0 0 554 c0 517 1 555 18 576 23 28 89 40 148 28 75 -16 73 3
73 -613 l0 -540 180 -3 181 -2 0 573 c0 649 -6 601 81 613 62 9 123 -10 137
-41 8 -18 12 -118 12 -320 l0 -295 181 0 180 0 -3 348 c-3 334 -4 349 -26 405
-45 110 -132 196 -241 238 -73 28 -206 35 -279 14z"/>
<path d="M1819 2248 c51 -68 88 -148 109 -238 l16 -70 291 0 c159 0 300 -3
313 -6 52 -14 73 -145 31 -198 l-20 -26 -310 0 -309 0 2 -182 3 -183 322 -3
323 -2 16 -25 c21 -32 21 -138 -1 -171 l-15 -24 -590 0 -590 0 0 -185 0 -185
600 0 c400 0 617 4 652 11 78 16 162 65 217 125 84 92 117 190 109 328 -7 119
-37 187 -114 263 l-62 61 40 43 c66 69 100 154 106 263 10 199 -85 359 -256
428 -56 23 -64 23 -490 26 l-433 3 40 -53z"/>
</g>
</svg>
